<svg xmlns="http://www.w3.org/2000/svg" width="48" height="48" class="icon" viewBox="0 0 1024 1024">
<path d="M25.2,13.9c-2.4,0-4.6,0.7-6.5,1.5v13.3c0,0,3.9,1.1,6.1,1.1c2.2,0,8.5-1.4,8.5-7.8S27.7,13.9,25.2,13.9z"/>
<path d="M40,4H8C5.8,4,4,5.8,4,8v32c0,2.2,1.8,4,4,4h32c2.2,0,4-1.8,4-4V8C44,5.8,42.2,4,40,4z M25.4,31.4c-3.7,0-5.7-0.4-6.7-0.9
		v3.6c0.1,0,0.1,0,0.2,0c0.5,0,0.9,1.1,0.9,1.1h-5.1c0,0,0.4-1.1,1.3-1.1c0.1,0,0.1,0,0.2,0V17c-1.7,1.2-2.8,2.5-3.1,3
		c0.7,1.4-0.4,1.8-0.4,1.8L11,19c0,0,6.1-6.6,14.3-6.6s11.3,5.4,11.3,9.6S33.5,31.4,25.4,31.4z"/>
<path d="M6.9,4.1C6.6,4.2,5.4,4.9,5.1,5.3c-0.4,0.5-0.9,1.2-1,1.6c-0.2,0.7-0.2,33.9,0,34.4c0.4,0.9,1.4,1.9,2.5,2.5
		C6.9,44,7.5,44,24,44h17l0.4-0.2c0.7-0.3,1.5-1.1,2-1.8c0.4-0.6,0.5-0.7,0.5-1.5C44,40,44,32.7,44,23.3C44,8.4,44,7,43.8,6.7
		c-0.4-0.9-1-1.5-1.8-2.1L41.2,4l-17,0C14.9,4,7.1,4,6.9,4.1z M17.8,12.2c0.2,0.1,1.1,0.9,2.1,1.9c1.4,1.4,1.8,1.7,2.1,1.8
		c0.5,0.1,3.4,0.1,3.9,0c0.3-0.1,0.7-0.5,2-1.8c0.9-0.9,1.8-1.8,2.1-1.9c0.7-0.4,1.5-0.2,1.9,0.4c0.5,0.7,0.4,1.3-0.3,2.1
		c-0.7,0.8-0.5,1.1,0.7,1.3c0.9,0.1,1.2,0.2,2.1,0.7c0.9,0.5,1.3,1,1.9,2.1l0.4,0.9v11.7l-0.5,0.9c-0.5,1-1.1,1.7-2,2.2
		c-0.9,0.6-0.9,0.6-10.6,0.5l-8.9,0l-0.6-0.2C14,34.7,13.4,34.4,13,34c-0.8-0.6-1.2-1.2-1.6-2.3c-0.2-0.5-0.2-0.5-0.2-6.2v-5.7
		l0.5-1c0.4-0.8,0.6-1.1,1.1-1.5c0.8-0.8,1.8-1.2,2.8-1.3c1.3-0.1,1.5-0.4,0.7-1.3c-0.2-0.3-0.5-0.6-0.5-0.8
		C15.5,12.7,16.7,11.7,17.8,12.2z"/>
<path d="M15.9,19.2c-0.4,0.1-0.7,0.3-1.1,0.7c-0.5,0.6-0.5,0.6-0.5,5.7s0,4.9,0.5,5.7c0.5,0.7,0,0.7,8.7,0.7
		c4.3,0,8,0,8.3,0c0.7-0.1,1.1-0.3,1.5-1l0.3-0.5v-4.8c0-3.2,0-4.9-0.1-5.1c-0.1-0.4-0.7-1-1-1.2c-0.2-0.1-1.2-0.2-8.2-0.2
		C19.9,19.1,16.1,19.2,15.9,19.2z M19.6,22.5c0.4,0.2,1.1,0.8,1.2,1.2c0.1,0.5,0.1,1.6,0,2c-0.1,0.4-0.6,0.9-0.9,1.2
		c-0.4,0.2-1.1,0.2-1.5,0c-0.2-0.1-0.4-0.4-0.5-0.6c-0.2-0.4-0.2-0.6-0.2-1.5c0-1,0-1.1,0.3-1.5c0.2-0.3,0.4-0.5,0.7-0.7
		C19.1,22.3,19.2,22.3,19.6,22.5z M29.2,22.5c0.9,0.4,1.4,1.7,1,3.2c-0.1,0.6-0.2,0.8-0.5,1c-0.3,0.3-0.4,0.4-0.9,0.4
		c-0.9,0-1.4-0.4-1.7-1.4c-0.2-0.6-0.1-1.8,0.1-2.2c0.2-0.5,1.1-1.1,1.5-1.1C28.9,22.4,29.1,22.4,29.2,22.5z"/>
</svg>
